<svg width="32" height="30" viewBox="0 0 32 30" fill="none" xmlns="http://www.w3.org/2000/svg">
<g id="&#240;&#159;&#166;&#134; icon &#34;user-circle&#34;">
<path id="Vector" d="M16 0C12.8909 0.00553327 9.85053 0.857853 7.24935 2.45314C4.64816 4.04843 2.59838 6.31784 1.34968 8.98494C0.10098 11.652 -0.292745 14.6017 0.216463 17.4747C0.72567 20.3477 2.11583 23.0199 4.21762 25.166C5.71875 26.6902 7.54064 27.9065 9.56848 28.7385C11.5963 29.5705 13.7862 30 16 30C18.2138 30 20.4037 29.5705 22.4315 28.7385C24.4594 27.9065 26.2813 26.6902 27.7824 25.166C29.8842 23.0199 31.2743 20.3477 31.7835 17.4747C32.2927 14.6017 31.899 11.652 30.6503 8.98494C29.4016 6.31784 27.3518 4.04843 24.7507 2.45314C22.1495 0.857853 19.1091 0.00553327 16 0ZM16 27.0279C12.6792 27.0232 9.4899 25.8121 7.1031 23.6494C7.82775 21.997 9.06047 20.5837 10.6446 19.5891C12.2288 18.5944 14.0929 18.0634 16 18.0634C17.9071 18.0634 19.7712 18.5944 21.3554 19.5891C22.9395 20.5837 24.1723 21.997 24.8969 23.6494C22.5101 25.8121 19.3208 27.0232 16 27.0279ZM12.7939 12.0124C12.7939 11.4185 12.9819 10.8378 13.3342 10.344C13.6865 9.85012 14.1872 9.46521 14.7731 9.23791C15.3589 9.01061 16.0036 8.95114 16.6255 9.06702C17.2474 9.18289 17.8187 9.46891 18.267 9.8889C18.7154 10.3089 19.0208 10.844 19.1445 11.4265C19.2682 12.0091 19.2047 12.6129 18.962 13.1617C18.7194 13.7104 18.3084 14.1794 17.7812 14.5094C17.254 14.8394 16.6341 15.0155 16 15.0155C15.1497 15.0155 14.3342 14.6991 13.733 14.1359C13.1317 13.5727 12.7939 12.8089 12.7939 12.0124ZM27.077 21.0217C25.6448 18.727 23.4404 16.9421 20.8091 15.9465C21.6254 15.0796 22.1572 14.0105 22.3408 12.8675C22.5244 11.7244 22.352 10.5561 21.8443 9.50257C21.3366 8.44905 20.5151 7.55515 19.4785 6.92811C18.4418 6.30107 17.234 5.96754 16 5.96754C14.766 5.96754 13.5582 6.30107 12.5215 6.92811C11.4849 7.55515 10.6634 8.44905 10.1557 9.50257C9.64798 10.5561 9.47559 11.7244 9.6592 12.8675C9.84282 14.0105 10.3746 15.0796 11.1909 15.9465C8.55963 16.9421 6.35523 18.727 4.92296 21.0217C3.7815 19.2005 3.1784 17.1274 3.17564 15.0155C3.17564 11.8296 4.52678 8.77422 6.93181 6.52146C9.33684 4.26869 12.5988 3.0031 16 3.0031C19.4012 3.0031 22.6632 4.26869 25.0682 6.52146C27.4732 8.77422 28.8244 11.8296 28.8244 15.0155C28.8216 17.1274 28.2185 19.2005 27.077 21.0217Z" fill="#F2EFEF" fill-opacity="0.6"/>
</g>
</svg>
